<svg version="1.0" xmlns="http://www.w3.org/2000/svg" width="66.667" height="66.667" viewBox="0 0 50 50"><path d="M12.8 3.4C10.2 5.1 8 6.7 8 7c0 .3 2.3 2 5 3.8l5 3.2V9l3.3 2c4.2 2.6 4.7 2.5 4.7-.5 0-2.9.8-3 5.8-1 16 6.7 16 28.3 0 35-9.2 3.8-19.5-.5-23.9-10-1-2.2-1.9-5-1.9-6.3C6 27 5.6 26 5 26c-1.6 0-1.1 5.2.9 9.5 6.3 13.6 23.2 16.6 33.7 6.1 8.5-8.4 8.5-20.8 0-29.3-2.9-2.9-5.7-4.5-8.9-5.4-4-.9-4.7-1.5-4.7-3.5 0-2.9-.6-3-4.7-.4l-3.2 1.9-.3-2.3-.3-2.3-4.7 3.1zm3 5.2c-.3 1.4-.5 1.4-2.3 0l-2-1.6 2-1.6c1.8-1.4 2-1.4 2.3 0 .2.9.2 2.3 0 3.2zM24 7c0 2.8-.1 2.9-2.5 1.8C20.1 8.2 19 7.4 19 7c0-.5 3.2-2.5 4.8-2.9.1-.1.2 1.2.2 2.9z"/><path d="M19 19.9c0 .5-.9 1.3-2 1.6-1.1.3-2 1.1-2 1.6s.9.9 2 .9c1.8 0 2 .7 2 5.5 0 3 .5 5.5 1 5.5.6 0 1-3.3 1-8s-.4-8-1-8c-.5 0-1 .4-1 .9zM24.9 21.5c-.1 1.4-.2 3.1-.3 3.7-.1.8.9 1.2 2.5 1 3-.3 5.4 2 4.5 4.3-.9 2.5-3.5 2.9-5.6 1-2.6-2.4-3.8-1.1-1.5 1.5 3.4 3.7 9.5 1.3 9.5-3.7 0-2.3-3-5.3-5.3-5.3-.9 0-1.7-.7-1.7-1.5 0-1 1-1.5 3-1.5 1.7 0 3-.5 3-1 0-.6-1.8-1-4-1-3.6 0-4 .3-4.1 2.5z"/></svg>