<svg version="1.0" xmlns="http://www.w3.org/2000/svg" width="682.667" height="682.667" viewBox="0 0 512 512"><path d="M238.5.6c-22.9 2.3-48.1 7.5-65.3 13.5-50 17.6-91.7 48.2-123.4 90.7-7.6 10.2-11.5 17.6-13.8 26.4l-1.9 7.3V94.7L34 51H0v137l68.2-.2 68.3-.3.3-16.8.2-16.7H98.5c-21.2 0-38.5-.3-38.5-.7 0-1 7.1-13.4 11.3-19.8 33.6-50.1 85.3-84.9 143.1-96.5 21.6-4.2 46.5-5.4 66.6-3 75.4 9 142.2 56.4 175.4 124.4 21.6 44.2 28.1 93.5 18.6 140.7-12.7 62.7-50.8 116.1-106.2 149-58.6 34.9-129.2 40.6-192.3 15.7-60-23.7-107.5-72.6-129.1-133-2.2-6-4.4-10.8-5-10.8-1.5 0-30.5 8.7-31.1 9.4-1.2 1.2 7.3 22.9 15.2 39.1 9.3 19 18.2 33.1 30.3 48.1C109.7 482.3 193.6 518.3 277 511c50.4-4.4 98.6-23.5 138.5-54.8 11.5-9 35.4-33.8 44.7-46.2 27.2-36.7 43.5-76.7 49.9-123 1.7-12.1 1.7-48.5.1-61-7.6-57.4-31.4-107.2-70.7-147.9-40.4-41.7-92.2-67.9-150-75.7-10.8-1.4-43.2-2.6-51-1.8z"/></svg>