<svg version="1.0" xmlns="http://www.w3.org/2000/svg" width="66.667" height="66.667" viewBox="0 0 50 50"><path d="M32 2.5V5l-3.2-2C24.6.5 24 .5 24 3.3c0 1.9-.8 2.5-4.4 3.5C7.4 10 .7 24.2 5.9 35.5c6 12.9 22.2 16.5 32.7 7.3 1.9-1.7 4.1-4.3 4.9-5.8 2-3.9 3.1-11 1.6-11-.6 0-1.1 1-1.1 2.2-.1 3.3-3.3 9.9-6.1 12.5-9.7 8.9-24.5 5.8-30-6.2-4.5-9.6.1-20.7 10.3-25 5-2 5.8-1.9 5.8 1 0 3 .5 3.1 4.8.5L32 9v5l5-3.2C39.7 9 42 7.3 42 7c0-.3-2.3-2-5-3.8L32 0v2.5zM31 7c0 .4-1.1 1.2-2.5 1.8C26.1 9.9 26 9.8 26 7s.1-2.9 2.5-1.8C29.9 5.8 31 6.6 31 7zm7 0c0 .5-.9 1.4-2 2-1.8 1-2 .8-2-2s.2-3 2-2c1.1.6 2 1.5 2 2z"/><path d="M19 20.9c0 .5-.9 1.3-2 1.6-1.1.3-2 1.1-2 1.6s.9.9 2 .9c1.8 0 2 .7 2 5.5 0 3 .5 5.5 1 5.5.6 0 1-3.3 1-8s-.4-8-1-8c-.5 0-1 .4-1 .9zM24.9 22.5c-.1 1.4-.2 3.1-.3 3.7-.1.8.9 1.2 2.5 1 3-.3 5.4 2 4.5 4.3-.9 2.5-3.5 2.9-5.6 1-2.6-2.4-3.8-1.1-1.5 1.5 3.4 3.7 9.5 1.3 9.5-3.7 0-2.3-3-5.3-5.3-5.3-.9 0-1.7-.7-1.7-1.5 0-1 1-1.5 3-1.5 1.7 0 3-.5 3-1 0-.6-1.8-1-4-1-3.6 0-4 .3-4.1 2.5z"/></svg>