<svg version="1.0" xmlns="http://www.w3.org/2000/svg" width="32" height="32" viewBox="0 0 24 24"><path d="M0 12v10h24V2H0v10zm23 0v8H1V4h22v8z"/><path d="M4 7.4c0 .8.8 1.7 1.8 2.1 1.6.7 1.5.8-.3 1.5-1.9.8-1.9.9.2.9 2.8.1 3.7-1.3 1.7-2.9-1.2-1.1-1.2-1.5-.2-2.1.9-.6.6-.9-.9-.9C5 6 4 6.6 4 7.4zM9 7.4c0 4.2 4.1 6.5 5.4 3C15.3 8 15.1 6 14 6c-.5 0-1 1.1-1 2.5s-.4 2.5-1 2.5c-.5 0-1-1.1-1-2.5S10.6 6 10 6c-.5 0-1 .6-1 1.4zM16 8.9c0 2.5.4 3.1 2.1 3.1 1.6 0 2-.5 1.7-2.7-.2-1.7-1-2.9-2-3.1-1.4-.3-1.8.3-1.8 2.7zm2.5 1.1c.3.5.1 1-.4 1-.6 0-1.1-.5-1.1-1 0-.6.2-1 .4-1 .3 0 .8.4 1.1 1zM4 15c0 .5.9 1 2 1s2-.5 2-1c0-.6-.9-1-2-1s-2 .4-2 1zM10 15c0 .5 2.3 1 5 1 2.8 0 5-.5 5-1 0-.6-2.2-1-5-1-2.7 0-5 .4-5 1zM8 18c0 .5 1.1 1 2.5 1s2.5-.5 2.5-1c0-.6-1.1-1-2.5-1S8 17.4 8 18z"/></svg>