<?xml version="1.0" standalone="no"?>
<!DOCTYPE svg PUBLIC "-//W3C//DTD SVG 20010904//EN"
 "http://www.w3.org/TR/2001/REC-SVG-20010904/DTD/svg10.dtd">
<svg version="1.0" xmlns="http://www.w3.org/2000/svg"
 width="50.000000pt" height="50.000000pt" viewBox="0 0 50.000000 50.000000"
 preserveAspectRatio="xMidYMid meet">

<g transform="translate(0.000000,50.000000) scale(0.100000,-0.100000)"
fill="#000000" stroke="none">
<path d="M128 466 c-26 -17 -48 -33 -48 -36 0 -3 23 -20 50 -38 l50 -32 0 25
0 25 33 -20 c42 -26 47 -25 47 5 0 29 8 30 58 10 160 -67 160 -283 0 -350 -92
-38 -195 5 -239 100 -10 22 -19 50 -19 63 0 12 -4 22 -10 22 -16 0 -11 -52 9
-95 63 -136 232 -166 337 -61 85 84 85 208 0 293 -29 29 -57 45 -89 54 -40 9
-47 15 -47 35 0 29 -6 30 -47 4 l-32 -19 -3 23 -3 23 -47 -31z m30 -52 c-3
-14 -5 -14 -23 0 l-20 16 20 16 c18 14 20 14 23 0 2 -9 2 -23 0 -32z m82 16
c0 -28 -1 -29 -25 -18 -14 6 -25 14 -25 18 0 5 32 25 48 29 1 1 2 -12 2 -29z"/>
<path d="M190 301 c0 -5 -9 -13 -20 -16 -11 -3 -20 -11 -20 -16 0 -5 9 -9 20
-9 18 0 20 -7 20 -55 0 -30 5 -55 10 -55 6 0 10 33 10 80 0 47 -4 80 -10 80
-5 0 -10 -4 -10 -9z"/>
<path d="M249 285 c-1 -14 -2 -31 -3 -37 -1 -8 9 -12 25 -10 30 3 54 -20 45
-43 -9 -25 -35 -29 -56 -10 -26 24 -38 11 -15 -15 34 -37 95 -13 95 37 0 23
-30 53 -53 53 -9 0 -17 7 -17 15 0 10 10 15 30 15 17 0 30 5 30 10 0 6 -18 10
-40 10 -36 0 -40 -3 -41 -25z"/>
</g>
</svg>
