<?xml version="1.0" standalone="no"?>
<!DOCTYPE svg PUBLIC "-//W3C//DTD SVG 20010904//EN"
 "http://www.w3.org/TR/2001/REC-SVG-20010904/DTD/svg10.dtd">
<svg version="1.0" xmlns="http://www.w3.org/2000/svg"
 width="16.000000pt" height="16.000000pt" viewBox="0 0 16.000000 16.000000"
 preserveAspectRatio="xMidYMid meet">

<g transform="translate(0.000000,16.000000) scale(0.100000,-0.100000)"
fill="#000000" stroke="none">
<path d="M16 144 c-21 -21 -21 -107 0 -128 10 -10 33 -16 64 -16 51 0 80 18
80 48 -1 14 -3 14 -12 -3 -16 -29 -28 -35 -70 -35 -49 0 -68 21 -68 75 0 38 4
46 28 59 18 10 21 15 10 16 -9 0 -24 -7 -32 -16z"/>
<path d="M119 121 c19 -21 27 -25 29 -14 5 19 -16 43 -38 43 -15 0 -14 -5 9
-29z"/>
<path d="M79 83 l-34 -38 38 34 c34 33 42 41 34 41 -2 0 -19 -17 -38 -37z"/>
</g>
</svg>
