<?xml version="1.0" standalone="no"?>
<!DOCTYPE svg PUBLIC "-//W3C//DTD SVG 20010904//EN"
 "http://www.w3.org/TR/2001/REC-SVG-20010904/DTD/svg10.dtd">
<svg version="1.0" xmlns="http://www.w3.org/2000/svg"
 width="50.000000pt" height="50.000000pt" viewBox="0 0 50.000000 50.000000"
 preserveAspectRatio="xMidYMid meet">

<g transform="translate(0.000000,50.000000) scale(0.100000,-0.100000)"
fill="#000000" stroke="none">
<path d="M320 475 l0 -25 -32 20 c-42 25 -48 25 -48 -3 0 -19 -8 -25 -44 -35
-122 -32 -189 -174 -137 -287 60 -129 222 -165 327 -73 19 17 41 43 49 58 20
39 31 110 16 110 -6 0 -11 -10 -11 -22 -1 -33 -33 -99 -61 -125 -97 -89 -245
-58 -300 62 -45 96 1 207 103 250 50 20 58 19 58 -10 0 -30 5 -31 48 -5 l32
20 0 -25 0 -25 50 32 c27 18 50 35 50 38 0 3 -23 20 -50 38 l-50 32 0 -25z
m-10 -45 c0 -4 -11 -12 -25 -18 -24 -11 -25 -10 -25 18 0 28 1 29 25 18 14 -6
25 -14 25 -18z m70 0 c0 -5 -9 -14 -20 -20 -18 -10 -20 -8 -20 20 0 28 2 30
20 20 11 -6 20 -15 20 -20z"/>
<path d="M190 291 c0 -5 -9 -13 -20 -16 -11 -3 -20 -11 -20 -16 0 -5 9 -9 20
-9 18 0 20 -7 20 -55 0 -30 5 -55 10 -55 6 0 10 33 10 80 0 47 -4 80 -10 80
-5 0 -10 -4 -10 -9z"/>
<path d="M249 275 c-1 -14 -2 -31 -3 -37 -1 -8 9 -12 25 -10 30 3 54 -20 45
-43 -9 -25 -35 -29 -56 -10 -26 24 -38 11 -15 -15 34 -37 95 -13 95 37 0 23
-30 53 -53 53 -9 0 -17 7 -17 15 0 10 10 15 30 15 17 0 30 5 30 10 0 6 -18 10
-40 10 -36 0 -40 -3 -41 -25z"/>
</g>
</svg>
